<mxfile host="app.diagrams.net" agent="Mozilla/5.0 (Windows NT 10.0; Win64; x64) AppleWebKit/537.36 (KHTML, like Gecko) Chrome/138.0.0.0 Safari/537.36" version="28.0.5">
  <diagram id="Eys0XsjKiKcDp_Y2fm7s" name="第 1 页">
    <mxGraphModel dx="2066" dy="1111" grid="1" gridSize="10" guides="1" tooltips="1" connect="1" arrows="0" fold="1" page="1" pageScale="1" pageWidth="3300" pageHeight="4681" math="0" shadow="0">
      <root>
        <mxCell id="0" />
        <mxCell id="1" parent="0" />
        <mxCell id="eET4ICUnmijQ7LKeNfcv-2" value="" style="rounded=0;whiteSpace=wrap;html=1;" parent="1" vertex="1">
          <mxGeometry x="140" y="20" width="890" height="940" as="geometry" />
        </mxCell>
        <mxCell id="eET4ICUnmijQ7LKeNfcv-3" value="&lt;span style=&quot;font-size: 13px;&quot;&gt;broker模块&lt;/span&gt;" style="text;html=1;align=center;verticalAlign=middle;whiteSpace=wrap;rounded=0;labelBackgroundColor=none;textShadow=0;fillColor=#f5f5f5;fontColor=#333333;strokeColor=#666666;" parent="1" vertex="1">
          <mxGeometry x="140" y="20" width="890" height="30" as="geometry" />
        </mxCell>
        <mxCell id="eET4ICUnmijQ7LKeNfcv-4" value="" style="rounded=1;whiteSpace=wrap;html=1;" parent="1" vertex="1">
          <mxGeometry x="170" y="85" width="840" height="865" as="geometry" />
        </mxCell>
        <mxCell id="eET4ICUnmijQ7LKeNfcv-5" value="" style="rounded=0;whiteSpace=wrap;html=1;" parent="1" vertex="1">
          <mxGeometry x="190" y="150" width="370" height="430" as="geometry" />
        </mxCell>
        <mxCell id="eET4ICUnmijQ7LKeNfcv-6" value="&lt;div&gt;加载配置：&lt;br&gt;加载主题配置、消费者偏移量、订阅组配置和消费者过滤配置。&lt;/div&gt;" style="rounded=0;whiteSpace=wrap;html=1;" parent="1" vertex="1">
          <mxGeometry x="200" y="190" width="350" height="50" as="geometry" />
        </mxCell>
        <mxCell id="eET4ICUnmijQ7LKeNfcv-7" value="&lt;span style=&quot;font-size: 18px;&quot;&gt;BrokerController&lt;/span&gt;" style="text;html=1;align=center;verticalAlign=middle;whiteSpace=wrap;rounded=0;" parent="1" vertex="1">
          <mxGeometry x="480" y="105" width="210" height="30" as="geometry" />
        </mxCell>
        <mxCell id="eET4ICUnmijQ7LKeNfcv-8" value="&lt;div&gt;初始化并加载消息存储&lt;/div&gt;&lt;div style=&quot;&quot;&gt;&lt;div style=&quot;&quot;&gt;this.messageStore&lt;/div&gt;&lt;/div&gt;" style="rounded=0;whiteSpace=wrap;html=1;align=center;verticalAlign=middle;" parent="1" vertex="1">
          <mxGeometry x="200" y="250" width="350" height="50" as="geometry" />
        </mxCell>
        <mxCell id="eET4ICUnmijQ7LKeNfcv-9" value="&lt;span style=&quot;background-color: transparent;&quot;&gt;创建远程通信服务器&lt;br&gt;this.remotingServer&lt;br&gt;&lt;/span&gt;" style="rounded=0;whiteSpace=wrap;html=1;" parent="1" vertex="1">
          <mxGeometry x="200" y="310" width="350" height="60" as="geometry" />
        </mxCell>
        <mxCell id="eET4ICUnmijQ7LKeNfcv-11" value="" style="rounded=1;whiteSpace=wrap;html=1;" parent="1" vertex="1">
          <mxGeometry x="1090" y="67.5" width="300" height="532.5" as="geometry" />
        </mxCell>
        <mxCell id="eET4ICUnmijQ7LKeNfcv-12" value="&lt;span style=&quot;font-size: 18px;&quot;&gt;NettyRemotingServer&lt;/span&gt;" style="text;html=1;align=center;verticalAlign=middle;whiteSpace=wrap;rounded=0;" parent="1" vertex="1">
          <mxGeometry x="1150" y="77.5" width="180" height="50" as="geometry" />
        </mxCell>
        <mxCell id="eET4ICUnmijQ7LKeNfcv-13" value="#registerDefaultProcessor" style="rounded=0;whiteSpace=wrap;html=1;align=center;labelBackgroundColor=none;fillColor=#f5f5f5;fontColor=#333333;strokeColor=#666666;" parent="1" vertex="1">
          <mxGeometry x="1100" y="137.5" width="280" height="30" as="geometry" />
        </mxCell>
        <mxCell id="eET4ICUnmijQ7LKeNfcv-16" value="&lt;div&gt;&lt;span style=&quot;background-color: transparent;&quot;&gt;后台定时任务：&lt;br&gt;包括记录统计信息、持久化消费者偏移量、保护 Broker、打印水位线等。&lt;/span&gt;&lt;/div&gt;" style="rounded=0;whiteSpace=wrap;html=1;" parent="1" vertex="1">
          <mxGeometry x="200" y="510" width="350" height="50" as="geometry" />
        </mxCell>
        <mxCell id="eET4ICUnmijQ7LKeNfcv-17" value="" style="rounded=1;whiteSpace=wrap;html=1;" parent="1" vertex="1">
          <mxGeometry x="590" y="565" width="370" height="310" as="geometry" />
        </mxCell>
        <mxCell id="eET4ICUnmijQ7LKeNfcv-20" value="&lt;span style=&quot;font-size: 18px;&quot;&gt;BrokerOuterAPI&lt;/span&gt;" style="text;html=1;align=center;verticalAlign=middle;whiteSpace=wrap;rounded=0;" parent="1" vertex="1">
          <mxGeometry x="590" y="565" width="370" height="50" as="geometry" />
        </mxCell>
        <mxCell id="eET4ICUnmijQ7LKeNfcv-22" value="&lt;span style=&quot;font-size: 13px;&quot;&gt;#initialize&lt;/span&gt;" style="text;html=1;align=center;verticalAlign=middle;whiteSpace=wrap;rounded=0;labelBackgroundColor=none;textShadow=0;fillColor=#f5f5f5;fontColor=#333333;strokeColor=#666666;" parent="1" vertex="1">
          <mxGeometry x="190" y="150" width="370" height="30" as="geometry" />
        </mxCell>
        <mxCell id="eET4ICUnmijQ7LKeNfcv-23" value="" style="rounded=0;whiteSpace=wrap;html=1;" parent="1" vertex="1">
          <mxGeometry x="615" y="150" width="370" height="300" as="geometry" />
        </mxCell>
        <mxCell id="eET4ICUnmijQ7LKeNfcv-24" value="&lt;span style=&quot;font-size: 13px;&quot;&gt;#start()&lt;/span&gt;" style="text;html=1;align=center;verticalAlign=middle;whiteSpace=wrap;rounded=0;labelBackgroundColor=none;textShadow=0;fillColor=#f5f5f5;fontColor=#333333;strokeColor=#666666;" parent="1" vertex="1">
          <mxGeometry x="615" y="150" width="370" height="30" as="geometry" />
        </mxCell>
        <mxCell id="eET4ICUnmijQ7LKeNfcv-25" value="开启远程服务器：&lt;b&gt;10911&lt;/b&gt;&lt;br&gt;&lt;div style=&quot;text-align: left;&quot;&gt;&lt;span style=&quot;background-color: transparent;&quot;&gt;this.remotingServer.start();&lt;/span&gt;&lt;/div&gt;" style="rounded=0;whiteSpace=wrap;html=1;" parent="1" vertex="1">
          <mxGeometry x="625" y="195" width="350" height="40" as="geometry" />
        </mxCell>
        <mxCell id="eET4ICUnmijQ7LKeNfcv-27" value="" style="rounded=0;whiteSpace=wrap;html=1;" parent="1" vertex="1">
          <mxGeometry x="1100" y="320" width="280" height="245" as="geometry" />
        </mxCell>
        <mxCell id="eET4ICUnmijQ7LKeNfcv-28" value="&lt;span style=&quot;font-size: 13px;&quot;&gt;#start()&lt;/span&gt;" style="text;html=1;align=center;verticalAlign=middle;whiteSpace=wrap;rounded=0;labelBackgroundColor=none;textShadow=0;fillColor=#f5f5f5;fontColor=#333333;strokeColor=#666666;" parent="1" vertex="1">
          <mxGeometry x="1090" y="318.75" width="280" height="30" as="geometry" />
        </mxCell>
        <mxCell id="eET4ICUnmijQ7LKeNfcv-29" style="edgeStyle=orthogonalEdgeStyle;rounded=0;orthogonalLoop=1;jettySize=auto;html=1;entryX=0;entryY=0.5;entryDx=0;entryDy=0;" parent="1" source="eET4ICUnmijQ7LKeNfcv-30" target="eET4ICUnmijQ7LKeNfcv-31" edge="1">
          <mxGeometry relative="1" as="geometry" />
        </mxCell>
        <mxCell id="eET4ICUnmijQ7LKeNfcv-30" value="eventLoopGroupBoss" style="rounded=0;whiteSpace=wrap;html=1;" parent="1" vertex="1">
          <mxGeometry x="1110" y="355" width="260" height="40" as="geometry" />
        </mxCell>
        <mxCell id="eET4ICUnmijQ7LKeNfcv-31" value="&lt;h3 style=&quot;margin-top: 0px;&quot;&gt;连接接收&lt;/h3&gt;&lt;p&gt;&lt;span style=&quot;background-color: transparent; color: light-dark(rgb(0, 0, 0), rgb(255, 255, 255));&quot;&gt;接收到新连接后，将新的 Channel 注册到 eventLoopGroupSelector 中的一个 EventLoop 上。&lt;/span&gt;&lt;span style=&quot;background-color: transparent; color: light-dark(rgb(0, 0, 0), rgb(255, 255, 255));&quot;&gt;.&lt;/span&gt;&lt;/p&gt;" style="text;html=1;whiteSpace=wrap;overflow=hidden;rounded=0;labelBorderColor=#D5E8D4;" parent="1" vertex="1">
          <mxGeometry x="1450" y="205" width="290" height="80" as="geometry" />
        </mxCell>
        <mxCell id="eET4ICUnmijQ7LKeNfcv-32" style="edgeStyle=orthogonalEdgeStyle;rounded=0;orthogonalLoop=1;jettySize=auto;html=1;entryX=0;entryY=0.5;entryDx=0;entryDy=0;" parent="1" source="eET4ICUnmijQ7LKeNfcv-33" target="eET4ICUnmijQ7LKeNfcv-36" edge="1">
          <mxGeometry relative="1" as="geometry">
            <mxPoint x="1430" y="395" as="targetPoint" />
            <Array as="points">
              <mxPoint x="1420" y="435" />
              <mxPoint x="1420" y="345" />
            </Array>
          </mxGeometry>
        </mxCell>
        <mxCell id="eET4ICUnmijQ7LKeNfcv-33" value="eventLoopGroupSelector" style="rounded=0;whiteSpace=wrap;html=1;" parent="1" vertex="1">
          <mxGeometry x="1110" y="415" width="260" height="40" as="geometry" />
        </mxCell>
        <mxCell id="eET4ICUnmijQ7LKeNfcv-34" style="edgeStyle=orthogonalEdgeStyle;rounded=0;orthogonalLoop=1;jettySize=auto;html=1;entryX=0;entryY=0.5;entryDx=0;entryDy=0;" parent="1" source="eET4ICUnmijQ7LKeNfcv-35" target="eET4ICUnmijQ7LKeNfcv-37" edge="1">
          <mxGeometry relative="1" as="geometry" />
        </mxCell>
        <mxCell id="eET4ICUnmijQ7LKeNfcv-35" value="defaultEventExecutorGroup&lt;br&gt;&lt;br&gt;&lt;font style=&quot;font-size: 10px;&quot;&gt;处理器：connectionManageHandler、NettyServerHandler&lt;/font&gt;" style="rounded=0;whiteSpace=wrap;html=1;verticalAlign=top;" parent="1" vertex="1">
          <mxGeometry x="1110" y="475" width="260" height="70" as="geometry" />
        </mxCell>
        <mxCell id="eET4ICUnmijQ7LKeNfcv-36" value="&lt;h3 style=&quot;margin-top: 0px;&quot;&gt;I/O 事件处理&lt;/h3&gt;&lt;p&gt;&lt;span style=&quot;background-color: transparent;&quot;&gt;基于 poll/epoll 机制轮询监听 Channel 的读写、连接断开等事件。&lt;font color=&quot;rgba(0, 0, 0, 0)&quot;&gt;.&lt;/font&gt;&lt;/span&gt;&lt;/p&gt;" style="text;html=1;whiteSpace=wrap;overflow=hidden;rounded=0;labelBorderColor=#D5E8D4;" parent="1" vertex="1">
          <mxGeometry x="1450" y="305" width="290" height="80" as="geometry" />
        </mxCell>
        <mxCell id="eET4ICUnmijQ7LKeNfcv-37" value="&lt;h3 style=&quot;margin-top: 0px;&quot;&gt;业务逻辑处理&lt;/h3&gt;&lt;p&gt;&lt;span style=&quot;background-color: transparent;&quot;&gt;I/O 事件触发&amp;nbsp;&lt;/span&gt;&lt;span style=&quot;background-color: transparent;&quot;&gt;ChannelPipeline 中处理器逻辑时，交由该线程池处理&lt;/span&gt;&lt;span style=&quot;background-color: transparent; color: light-dark(rgb(0, 0, 0), rgb(255, 255, 255));&quot;&gt;。&lt;/span&gt;&lt;font style=&quot;background-color: transparent;&quot;&gt;.&lt;/font&gt;&lt;/p&gt;" style="text;html=1;whiteSpace=wrap;overflow=hidden;rounded=0;labelBorderColor=#D5E8D4;" parent="1" vertex="1">
          <mxGeometry x="1450" y="405" width="290" height="80" as="geometry" />
        </mxCell>
        <mxCell id="JuXulwrUQDD9TJNH97vn-1" value="&lt;span style=&quot;background-color: transparent;&quot;&gt;创建一系列消息处理器线程池&lt;br&gt;MessageExecutor&lt;/span&gt;" style="rounded=0;whiteSpace=wrap;html=1;" vertex="1" parent="1">
          <mxGeometry x="200" y="380" width="350" height="40" as="geometry" />
        </mxCell>
        <mxCell id="JuXulwrUQDD9TJNH97vn-2" value="&lt;span style=&quot;background-color: transparent;&quot;&gt;注册一系列消息处理器&lt;br&gt;&lt;b&gt;this.remotingServer.registerProcessor&lt;/b&gt;&lt;br&gt;(RequestCode, Processor, MessageExecutor);&lt;/span&gt;" style="rounded=0;whiteSpace=wrap;html=1;" vertex="1" parent="1">
          <mxGeometry x="200" y="440" width="350" height="60" as="geometry" />
        </mxCell>
        <mxCell id="JuXulwrUQDD9TJNH97vn-16" style="edgeStyle=orthogonalEdgeStyle;rounded=0;orthogonalLoop=1;jettySize=auto;html=1;exitX=1;exitY=0.5;exitDx=0;exitDy=0;entryX=0;entryY=0.5;entryDx=0;entryDy=0;" edge="1" parent="1" source="JuXulwrUQDD9TJNH97vn-9" target="JuXulwrUQDD9TJNH97vn-15">
          <mxGeometry relative="1" as="geometry" />
        </mxCell>
        <mxCell id="JuXulwrUQDD9TJNH97vn-9" value="&lt;br&gt;this.&lt;b&gt;processorTable&lt;/b&gt;.put&lt;br&gt;(requestCode, (processor, executor));" style="rounded=0;whiteSpace=wrap;html=1;" vertex="1" parent="1">
          <mxGeometry x="1100" y="182.5" width="280" height="110" as="geometry" />
        </mxCell>
        <mxCell id="JuXulwrUQDD9TJNH97vn-10" value="&lt;span style=&quot;color: rgb(0, 0, 0);&quot;&gt;#registerProcessor&lt;/span&gt;" style="text;html=1;align=center;verticalAlign=middle;whiteSpace=wrap;rounded=0;labelBackgroundColor=none;textShadow=0;fillColor=#f5f5f5;fontColor=#333333;strokeColor=#666666;" vertex="1" parent="1">
          <mxGeometry x="1100" y="182.5" width="280" height="30" as="geometry" />
        </mxCell>
        <mxCell id="JuXulwrUQDD9TJNH97vn-11" value="创建外部 API 服务：&lt;br&gt;&lt;div style=&quot;text-align: left;&quot;&gt;this.brokerOuterAPI.start();&lt;br&gt;this.remotingClient.start();&lt;/div&gt;" style="rounded=0;whiteSpace=wrap;html=1;" vertex="1" parent="1">
          <mxGeometry x="625" y="250" width="350" height="50" as="geometry" />
        </mxCell>
        <mxCell id="JuXulwrUQDD9TJNH97vn-28" style="edgeStyle=orthogonalEdgeStyle;rounded=0;orthogonalLoop=1;jettySize=auto;html=1;exitX=0;exitY=0.5;exitDx=0;exitDy=0;entryX=0;entryY=0.5;entryDx=0;entryDy=0;" edge="1" parent="1" source="JuXulwrUQDD9TJNH97vn-12" target="JuXulwrUQDD9TJNH97vn-18">
          <mxGeometry relative="1" as="geometry" />
        </mxCell>
        <mxCell id="JuXulwrUQDD9TJNH97vn-12" value="往外部 API 服务注册broker&lt;br&gt;&lt;div style=&quot;text-align: left;&quot;&gt;this.registerBrokerAll();&lt;/div&gt;" style="rounded=0;whiteSpace=wrap;html=1;" vertex="1" parent="1">
          <mxGeometry x="625" y="310" width="350" height="40" as="geometry" />
        </mxCell>
        <mxCell id="JuXulwrUQDD9TJNH97vn-13" value="&lt;div&gt;&lt;br&gt;&lt;/div&gt;&lt;div&gt;// 命令&lt;/div&gt;&lt;div&gt;request = RemotingCommand.createRequestCommand&lt;br&gt;(RequestCode.REGISTER_BROKER, requestHeader);&lt;br&gt;&lt;b&gt;// 调用NameServer：9876&lt;/b&gt;&lt;/div&gt;&lt;div&gt;this.remotingClient.invokeSync(namesrvAddr, request, timeoutMills)&lt;/div&gt;" style="rounded=0;whiteSpace=wrap;html=1;align=left;" vertex="1" parent="1">
          <mxGeometry x="605" y="695" width="340" height="130" as="geometry" />
        </mxCell>
        <mxCell id="JuXulwrUQDD9TJNH97vn-14" value="&lt;span style=&quot;font-size: 13px;&quot;&gt;注册broker#&lt;/span&gt;&lt;span style=&quot;color: rgb(0, 0, 0);&quot;&gt;registerBroker&lt;/span&gt;&lt;span style=&quot;font-size: 13px;&quot;&gt;()&lt;/span&gt;" style="text;html=1;align=center;verticalAlign=middle;whiteSpace=wrap;rounded=0;labelBackgroundColor=none;textShadow=0;fillColor=#f5f5f5;fontColor=#333333;strokeColor=#666666;" vertex="1" parent="1">
          <mxGeometry x="605" y="695" width="340" height="30" as="geometry" />
        </mxCell>
        <mxCell id="JuXulwrUQDD9TJNH97vn-15" value="&lt;h3 style=&quot;margin-top: 0px;&quot;&gt;processorTable&lt;/h3&gt;&lt;p&gt;记录broker请求的消息处理器&lt;/p&gt;" style="text;html=1;whiteSpace=wrap;overflow=hidden;rounded=0;labelBorderColor=#D5E8D4;" vertex="1" parent="1">
          <mxGeometry x="1480" y="92.5" width="190" height="70" as="geometry" />
        </mxCell>
        <mxCell id="JuXulwrUQDD9TJNH97vn-29" style="edgeStyle=orthogonalEdgeStyle;rounded=0;orthogonalLoop=1;jettySize=auto;html=1;exitX=0;exitY=0.5;exitDx=0;exitDy=0;entryX=0;entryY=0.5;entryDx=0;entryDy=0;" edge="1" parent="1" source="JuXulwrUQDD9TJNH97vn-17" target="JuXulwrUQDD9TJNH97vn-18">
          <mxGeometry relative="1" as="geometry" />
        </mxCell>
        <mxCell id="JuXulwrUQDD9TJNH97vn-30" value="30s" style="edgeLabel;html=1;align=center;verticalAlign=middle;resizable=0;points=[];" vertex="1" connectable="0" parent="JuXulwrUQDD9TJNH97vn-29">
          <mxGeometry x="-0.8102" relative="1" as="geometry">
            <mxPoint as="offset" />
          </mxGeometry>
        </mxCell>
        <mxCell id="JuXulwrUQDD9TJNH97vn-17" value="&lt;span style=&quot;background-color: transparent;&quot;&gt;后台定时任务：30s&lt;br&gt;定期向 Name Server 注册 Broker 信息。&lt;br&gt;&lt;/span&gt;&lt;span style=&quot;text-align: left;&quot;&gt;this.registerBrokerAll();&lt;/span&gt;&lt;span style=&quot;background-color: transparent;&quot;&gt;&lt;/span&gt;" style="rounded=0;whiteSpace=wrap;html=1;" vertex="1" parent="1">
          <mxGeometry x="625" y="370" width="350" height="50" as="geometry" />
        </mxCell>
        <mxCell id="JuXulwrUQDD9TJNH97vn-19" style="edgeStyle=orthogonalEdgeStyle;rounded=0;orthogonalLoop=1;jettySize=auto;html=1;exitX=0.5;exitY=1;exitDx=0;exitDy=0;entryX=0.5;entryY=0;entryDx=0;entryDy=0;" edge="1" parent="1" source="JuXulwrUQDD9TJNH97vn-18" target="JuXulwrUQDD9TJNH97vn-14">
          <mxGeometry relative="1" as="geometry" />
        </mxCell>
        <mxCell id="JuXulwrUQDD9TJNH97vn-18" value="&lt;span style=&quot;font-size: 13px;&quot;&gt;注册broker#&lt;/span&gt;&lt;span style=&quot;color: rgb(0, 0, 0);&quot;&gt;registerBroker&lt;/span&gt;&lt;span style=&quot;font-size: 13px;&quot;&gt;()&lt;/span&gt;" style="text;html=1;align=center;verticalAlign=middle;whiteSpace=wrap;rounded=0;labelBackgroundColor=none;textShadow=0;fillColor=#f5f5f5;fontColor=#333333;strokeColor=#666666;" vertex="1" parent="1">
          <mxGeometry x="605" y="615" width="340" height="30" as="geometry" />
        </mxCell>
        <mxCell id="JuXulwrUQDD9TJNH97vn-31" style="edgeStyle=orthogonalEdgeStyle;rounded=0;orthogonalLoop=1;jettySize=auto;html=1;exitX=1;exitY=0.5;exitDx=0;exitDy=0;entryX=0;entryY=0.623;entryDx=0;entryDy=0;entryPerimeter=0;" edge="1" parent="1" source="JuXulwrUQDD9TJNH97vn-2" target="JuXulwrUQDD9TJNH97vn-9">
          <mxGeometry relative="1" as="geometry">
            <Array as="points">
              <mxPoint x="1060" y="470" />
              <mxPoint x="1060" y="251" />
            </Array>
          </mxGeometry>
        </mxCell>
        <mxCell id="JuXulwrUQDD9TJNH97vn-32" value="提供消息命令对应处理器" style="edgeLabel;html=1;align=center;verticalAlign=middle;resizable=0;points=[];" vertex="1" connectable="0" parent="JuXulwrUQDD9TJNH97vn-31">
          <mxGeometry x="-0.2354" y="-2" relative="1" as="geometry">
            <mxPoint as="offset" />
          </mxGeometry>
        </mxCell>
      </root>
    </mxGraphModel>
  </diagram>
</mxfile>
